<?xml version="1.0" encoding="UTF-8" standalone="no"?>
<!-- Created with Inkscape (http://www.inkscape.org/) -->

<svg
   xmlns:dc="http://purl.org/dc/elements/1.1/"
   xmlns:cc="http://creativecommons.org/ns#"
   xmlns:rdf="http://www.w3.org/1999/02/22-rdf-syntax-ns#"
   xmlns:svg="http://www.w3.org/2000/svg"
   xmlns="http://www.w3.org/2000/svg"
   xmlns:sodipodi="http://sodipodi.sourceforge.net/DTD/sodipodi-0.dtd"
   xmlns:inkscape="http://www.inkscape.org/namespaces/inkscape"
   width="512"
   height="512"
   viewBox="0 0 511.99998 512.00001"
   id="svg2"
   version="1.1"
   inkscape:version="0.91 r13725"
   sodipodi:docname="ic_new_launcher-w48mdpi.svg">
  <defs
     id="defs4">
    <filter
       inkscape:collect="always"
       style="color-interpolation-filters:sRGB"
       id="filter4200"
       x="-0.14246092"
       width="1.2849218"
       y="-0.14557269"
       height="1.2911454">
      <feGaussianBlur
         inkscape:collect="always"
         stdDeviation="2.6247149"
         id="feGaussianBlur4202" />
    </filter>
  </defs>
  <sodipodi:namedview
     id="base"
     pagecolor="#ffffff"
     bordercolor="#666666"
     borderopacity="1.0"
     inkscape:pageopacity="0.0"
     inkscape:pageshadow="2"
     inkscape:zoom="0.98994949"
     inkscape:cx="73.657428"
     inkscape:cy="256"
     inkscape:document-units="px"
     inkscape:current-layer="g4167"
     showgrid="false"
     inkscape:window-width="1440"
     inkscape:window-height="851"
     inkscape:window-x="0"
     inkscape:window-y="1"
     inkscape:window-maximized="1"
     fit-margin-top="0"
     fit-margin-left="0"
     fit-margin-right="0"
     fit-margin-bottom="0"
     units="px" />
  <metadata
     id="metadata7">
    <rdf:RDF>
      <cc:Work
         rdf:about="">
        <dc:format>image/svg+xml</dc:format>
        <dc:type
           rdf:resource="http://purl.org/dc/dcmitype/StillImage" />
        <dc:title></dc:title>
      </cc:Work>
    </rdf:RDF>
  </metadata>
  <g
     inkscape:label="Layer 1"
     inkscape:groupmode="layer"
     id="layer1"
     transform="translate(-435.02804,-225.33384)">
    <g
       id="g4167"
       transform="matrix(1.6300652,0,0,1.630068,406.93099,210.21491)">
      <rect
         ry="29.357357"
         y="14.533381"
         x="20.742323"
         height="307.08621"
         width="307.08676"
         id="rect4473"
         style="opacity:1;fill:#4caf50;fill-opacity:1;stroke:none;stroke-width:0;stroke-miterlimit:5.30000019;stroke-dasharray:none;stroke-dashoffset:0;stroke-opacity:1" />
      <g
         id="g4303"
         transform="translate(555.11312,-2362.1387)">
        <rect
           style="opacity:1;fill:#efefef;fill-opacity:1;stroke:none;stroke-width:0;stroke-miterlimit:5.30000019;stroke-dasharray:none;stroke-dashoffset:0;stroke-opacity:1"
           id="rect4471"
           width="177.22812"
           height="241.32213"
           x="-469.44144"
           y="2408.5728"
           ry="23.75218"
           inkscape:export-xdpi="169.89"
           inkscape:export-ydpi="169.89" />
        <path
           id="path4421"
           d="m -450.03324,2408.2233 c -10.8869,0 -19.6521,8.4284 -19.6521,18.8967 l 0,204.0441 c 0,10.4683 8.7652,18.8952 19.6521,18.8952 l 45.3247,0 0,-50.0425 49.62669,0 0,50.0425 43.46049,0 c 10.88679,0 19.65194,-8.4269 19.65194,-18.8952 l 0,-204.0441 c 0,-10.4683 -8.76515,-18.8967 -19.65194,-18.8967 l -138.41188,0 z m -7.2803,20.4729 42.13579,0 0,43.3215 -42.13579,0 0,-43.3215 z m 55.50768,0 42.13592,0 0,43.3215 -42.13592,0 0,-43.3215 z m 55.5078,0 42.13606,0 0,43.3215 -42.13606,0 0,-43.3215 z m -111.01548,53.9676 42.13579,0 0,43.3216 -42.13579,0 0,-43.3216 z m 55.50768,0 42.13592,0 0,43.3216 -42.13592,0 0,-43.3216 z m 55.5078,0 42.13606,0 0,43.3216 -42.13606,0 0,-43.3216 z m -111.01548,52.9859 42.13579,0 0,43.3214 -42.13579,0 0,-43.3214 z m 55.50768,0 42.13592,0 0,43.3214 -42.13592,0 0,-43.3214 z m 55.5078,0 42.13606,0 0,43.3214 -42.13606,0 0,-43.3214 z"
           style="opacity:1;fill:#ff9800;fill-opacity:1;stroke:none;stroke-width:0;stroke-miterlimit:5.30000019;stroke-dasharray:none;stroke-dashoffset:0;stroke-opacity:1"
           inkscape:connector-curvature="0"
           inkscape:export-xdpi="169.89"
           inkscape:export-ydpi="169.89" />
        <rect
           style="fill:#ffeeb2;fill-opacity:1;stroke:#000000;stroke-width:0;stroke-linecap:round;stroke-linejoin:miter;stroke-miterlimit:4;stroke-dasharray:none;stroke-opacity:1;filter:url(#filter4200)"
           id="rect4146"
           width="44.21785"
           height="43.272648"
           x="-348.24796"
           y="2428.4421"
           transform="matrix(1.0792917,0,0,1.0524845,26.169987,-128.90085)" />
      </g>
      <flowRoot
         xml:space="preserve"
         id="flowRoot4212"
         style="fill:black;stroke:none;stroke-opacity:1;stroke-width:1px;stroke-linejoin:miter;stroke-linecap:butt;fill-opacity:1;font-family:Sans;font-style:normal;font-weight:normal;font-size:17.5px;line-height:125%;letter-spacing:0px;word-spacing:0px"><flowRegion
           id="flowRegion4214"><rect
             id="rect4216"
             width="90.913727"
             height="68.690376"
             x="-347.49246"
             y="147.33493" /></flowRegion><flowPara
           id="flowPara4218"></flowPara></flowRoot>    </g>
  </g>
</svg>
