<?xml version="1.0" encoding="UTF-8" standalone="no"?>
<!-- Created with Inkscape (http://www.inkscape.org/) -->

<svg
   xmlns:dc="http://purl.org/dc/elements/1.1/"
   xmlns:cc="http://creativecommons.org/ns#"
   xmlns:rdf="http://www.w3.org/1999/02/22-rdf-syntax-ns#"
   xmlns:svg="http://www.w3.org/2000/svg"
   xmlns="http://www.w3.org/2000/svg"
   xmlns:sodipodi="http://sodipodi.sourceforge.net/DTD/sodipodi-0.dtd"
   xmlns:inkscape="http://www.inkscape.org/namespaces/inkscape"
   width="244.07811"
   height="187.40395"
   viewBox="0 0 244.07812 187.40394"
   id="svg4385"
   version="1.1"
   inkscape:version="0.91 r13725"
   sodipodi:docname="img_new_building-w200mdpi.svg">
  <defs
     id="defs4387" />
  <sodipodi:namedview
     id="base"
     pagecolor="#ffffff"
     bordercolor="#666666"
     borderopacity="1.0"
     inkscape:pageopacity="0.0"
     inkscape:pageshadow="2"
     inkscape:zoom="1.4"
     inkscape:cx="52.441911"
     inkscape:cy="18.775175"
     inkscape:document-units="px"
     inkscape:current-layer="layer1"
     showgrid="false"
     inkscape:window-width="1920"
     inkscape:window-height="1031"
     inkscape:window-x="1920"
     inkscape:window-y="0"
     inkscape:window-maximized="1"
     fit-margin-top="0"
     fit-margin-left="0"
     fit-margin-right="0"
     fit-margin-bottom="0"
     units="px" />
  <metadata
     id="metadata4390">
    <rdf:RDF>
      <cc:Work
         rdf:about="">
        <dc:format>image/svg+xml</dc:format>
        <dc:type
           rdf:resource="http://purl.org/dc/dcmitype/StillImage" />
        <dc:title></dc:title>
      </cc:Work>
    </rdf:RDF>
  </metadata>
  <g
     inkscape:label="Layer 1"
     inkscape:groupmode="layer"
     id="layer1"
     transform="translate(-203.67522,-95.729929)">
    <g
       id="g4307"
       transform="matrix(0.77492167,0,0,0.77492167,674.00677,-1770.4545)">
      <rect
         style="opacity:1;fill:#ffffff;fill-opacity:1;stroke:none;stroke-width:0;stroke-miterlimit:5.30000019;stroke-dasharray:none;stroke-dashoffset:0;stroke-opacity:1"
         id="rect4309"
         width="177.22812"
         height="241.32213"
         x="-469.44144"
         y="2408.5728"
         ry="23.75218"
         inkscape:export-xdpi="169.89"
         inkscape:export-ydpi="169.89" />
      <path
         id="path4311"
         d="m -450.03324,2408.2233 c -10.8869,0 -19.6521,8.4284 -19.6521,18.8967 l 0,204.0441 c 0,10.4683 8.7652,18.8952 19.6521,18.8952 l 45.3247,0 0,-50.0425 49.62669,0 0,50.0425 43.46049,0 c 10.88679,0 19.65194,-8.4269 19.65194,-18.8952 l 0,-204.0441 c 0,-10.4683 -8.76515,-18.8967 -19.65194,-18.8967 l -138.41188,0 z m -7.2803,20.4729 42.13579,0 0,43.3215 -42.13579,0 0,-43.3215 z m 55.50768,0 42.13592,0 0,43.3215 -42.13592,0 0,-43.3215 z m 55.5078,0 42.13606,0 0,43.3215 -42.13606,0 0,-43.3215 z m -111.01548,53.9676 42.13579,0 0,43.3216 -42.13579,0 0,-43.3216 z m 55.50768,0 42.13592,0 0,43.3216 -42.13592,0 0,-43.3216 z m 55.5078,0 42.13606,0 0,43.3216 -42.13606,0 0,-43.3216 z m -111.01548,52.9859 42.13579,0 0,43.3214 -42.13579,0 0,-43.3214 z m 55.50768,0 42.13592,0 0,43.3214 -42.13592,0 0,-43.3214 z m 55.5078,0 42.13606,0 0,43.3214 -42.13606,0 0,-43.3214 z"
         style="opacity:1;fill:#58d4b5;fill-opacity:1;stroke:none;stroke-width:0;stroke-miterlimit:5.30000019;stroke-dasharray:none;stroke-dashoffset:0;stroke-opacity:1"
         inkscape:connector-curvature="0"
         inkscape:export-xdpi="169.89"
         inkscape:export-ydpi="169.89" />
    </g>
    <g
       id="g4820">
      <rect
         y="180.42311"
         x="203.67522"
         height="23.571428"
         width="87.85714"
         id="rect3465"
         style="opacity:1;fill:#ff6600;fill-opacity:1;stroke:none;stroke-width:0;stroke-miterlimit:5.30000019;stroke-dasharray:none;stroke-dashoffset:0;stroke-opacity:1" />
      <rect
         y="147.56596"
         x="237.24664"
         height="89.285713"
         width="20.714285"
         id="rect3467"
         style="opacity:1;fill:#ff6600;fill-opacity:1;stroke:none;stroke-width:0;stroke-miterlimit:5.30000019;stroke-dasharray:none;stroke-dashoffset:0;stroke-opacity:1" />
    </g>
  </g>
</svg>
