<?xml version="1.0" encoding="UTF-8" standalone="no"?>
<!-- Created with Inkscape (http://www.inkscape.org/) -->

<svg
   xmlns:dc="http://purl.org/dc/elements/1.1/"
   xmlns:cc="http://creativecommons.org/ns#"
   xmlns:rdf="http://www.w3.org/1999/02/22-rdf-syntax-ns#"
   xmlns:svg="http://www.w3.org/2000/svg"
   xmlns="http://www.w3.org/2000/svg"
   xmlns:sodipodi="http://sodipodi.sourceforge.net/DTD/sodipodi-0.dtd"
   xmlns:inkscape="http://www.inkscape.org/namespaces/inkscape"
   width="401.22095"
   height="241.83601"
   viewBox="0 0 401.22097 241.83601"
   id="svg4385"
   version="1.1"
   inkscape:version="0.91 r13725"
   sodipodi:docname="img_join_building.svg">
  <defs
     id="defs4387" />
  <sodipodi:namedview
     id="base"
     pagecolor="#ffffff"
     bordercolor="#666666"
     borderopacity="1.0"
     inkscape:pageopacity="0.0"
     inkscape:pageshadow="2"
     inkscape:zoom="0.35"
     inkscape:cx="-298.67523"
     inkscape:cy="-221.9391"
     inkscape:document-units="px"
     inkscape:current-layer="layer1"
     showgrid="false"
     inkscape:window-width="1920"
     inkscape:window-height="1031"
     inkscape:window-x="1920"
     inkscape:window-y="0"
     inkscape:window-maximized="1"
     fit-margin-top="0"
     fit-margin-left="0"
     fit-margin-right="0"
     fit-margin-bottom="0"
     units="px" />
  <metadata
     id="metadata4390">
    <rdf:RDF>
      <cc:Work
         rdf:about="">
        <dc:format>image/svg+xml</dc:format>
        <dc:type
           rdf:resource="http://purl.org/dc/dcmitype/StillImage" />
        <dc:title></dc:title>
      </cc:Work>
    </rdf:RDF>
  </metadata>
  <g
     inkscape:label="Layer 1"
     inkscape:groupmode="layer"
     id="layer1"
     transform="translate(-127.96094,-68.5871)">
    <g
       id="g3357">
      <g
         transform="translate(821.15134,-2339.6362)"
         id="g4307">
        <rect
           inkscape:export-ydpi="169.89"
           inkscape:export-xdpi="169.89"
           ry="23.75218"
           y="2408.5728"
           x="-469.44144"
           height="241.32213"
           width="177.22812"
           id="rect4309"
           style="opacity:1;fill:#ffffff;fill-opacity:1;stroke:none;stroke-width:0;stroke-miterlimit:5.30000019;stroke-dasharray:none;stroke-dashoffset:0;stroke-opacity:1" />
        <path
           inkscape:export-ydpi="169.89"
           inkscape:export-xdpi="169.89"
           inkscape:connector-curvature="0"
           style="opacity:1;fill:#58d4b5;fill-opacity:1;stroke:none;stroke-width:0;stroke-miterlimit:5.30000019;stroke-dasharray:none;stroke-dashoffset:0;stroke-opacity:1"
           d="m -450.03324,2408.2233 c -10.8869,0 -19.6521,8.4284 -19.6521,18.8967 l 0,204.0441 c 0,10.4683 8.7652,18.8952 19.6521,18.8952 l 45.3247,0 0,-50.0425 49.62669,0 0,50.0425 43.46049,0 c 10.88679,0 19.65194,-8.4269 19.65194,-18.8952 l 0,-204.0441 c 0,-10.4683 -8.76515,-18.8967 -19.65194,-18.8967 l -138.41188,0 z m -7.2803,20.4729 42.13579,0 0,43.3215 -42.13579,0 0,-43.3215 z m 55.50768,0 42.13592,0 0,43.3215 -42.13592,0 0,-43.3215 z m 55.5078,0 42.13606,0 0,43.3215 -42.13606,0 0,-43.3215 z m -111.01548,53.9676 42.13579,0 0,43.3216 -42.13579,0 0,-43.3216 z m 55.50768,0 42.13592,0 0,43.3216 -42.13592,0 0,-43.3216 z m 55.5078,0 42.13606,0 0,43.3216 -42.13606,0 0,-43.3216 z m -111.01548,52.9859 42.13579,0 0,43.3214 -42.13579,0 0,-43.3214 z m 55.50768,0 42.13592,0 0,43.3214 -42.13592,0 0,-43.3214 z m 55.5078,0 42.13606,0 0,43.3214 -42.13606,0 0,-43.3214 z"
           id="path4311" />
      </g>
      <path
         id="path4365"
         d="m 172.93173,265.45226 c 12.42318,0 22.4854,-10.0622 22.4854,-22.4854 0,-12.4232 -10.06222,-22.4854 -22.4854,-22.4854 -12.42318,0 -22.4854,10.0622 -22.4854,22.4854 0,12.4232 10.06222,22.4854 22.4854,22.4854 z m 0,11.2427 c -15.009,0 -44.97079,7.5326 -44.97079,22.4854 l 0,11.2427 89.94158,0 0,-11.2427 c 0,-14.9528 -29.96179,-22.4854 -44.97079,-22.4854 z"
         inkscape:connector-curvature="0"
         style="fill:#ff6600" />
      <rect
         ry="0"
         y="253.92186"
         x="228.70352"
         height="21.962847"
         width="80.164391"
         id="rect4381"
         style="opacity:1;fill:#ff6600;fill-opacity:1;stroke:none;stroke-width:0;stroke-miterlimit:5.30000019;stroke-dasharray:none;stroke-dashoffset:0;stroke-opacity:1" />
      <path
         sodipodi:nodetypes="cccc"
         inkscape:connector-curvature="0"
         id="path4383"
         d="m 307.76979,242.39136 0.54907,45.0238 29.10077,-21.4137 z"
         style="fill:#ff6600;fill-opacity:1;fill-rule:evenodd;stroke:#ff6600;stroke-width:1px;stroke-linecap:butt;stroke-linejoin:miter;stroke-opacity:1" />
    </g>
  </g>
</svg>
